# Blender 4.0.2
# www.blender.org
mtllib cube.mtl
o Cube
v -0.067456 0.480497 -0.083149
v 0.105372 0.101575 -0.470021
v 0.296034 0.260651 0.294560
v 0.468862 -0.118270 -0.092312
v -0.468862 0.118270 0.092312
v -0.296034 -0.260651 -0.294560
v -0.105372 -0.101575 0.470021
v 0.067456 -0.480497 0.083149
vn -0.3040 0.6666 0.6806
vn 0.6395 -0.3868 0.6645
vn -0.7062 -0.6372 0.3087
vn 0.3040 -0.6666 -0.6806
vn 0.7062 0.6372 -0.3087
vn -0.6395 0.3868 -0.6645
vt 0.875000 0.500000
vt 0.625000 0.750000
vt 0.625000 0.500000
vt 0.375000 1.000000
vt 0.375000 0.750000
vt 0.625000 0.000000
vt 0.375000 0.250000
vt 0.375000 0.000000
vt 0.375000 0.500000
vt 0.125000 0.750000
vt 0.125000 0.500000
vt 0.625000 0.250000
vt 0.875000 0.750000
vt 0.625000 1.000000
s 0
usemtl Material
f 5/1/1 3/2/1 1/3/1
f 3/2/2 8/4/2 4/5/2
f 7/6/3 6/7/3 8/8/3
f 2/9/4 8/10/4 6/11/4
f 1/3/5 4/5/5 2/9/5
f 5/12/6 2/9/6 6/7/6
f 5/1/1 7/13/1 3/2/1
f 3/2/2 7/14/2 8/4/2
f 7/6/3 5/12/3 6/7/3
f 2/9/4 4/5/4 8/10/4
f 1/3/5 3/2/5 4/5/5
f 5/12/6 1/3/6 2/9/6
