# Blender 4.0.2
# www.blender.org
mtllib icosphere.mtl
o simulation_mesh
v -1.999357 2.999997 -0.000000
v -1.736490 2.951054 0.162460
v -1.736490 2.951054 -0.162460
v -1.473625 2.850648 -0.000000
v -1.999357 2.850648 -0.525731
v -1.499357 2.809014 -0.309017
v -1.999357 2.961935 0.273267
v -2.262223 2.951054 0.162460
v -2.259248 2.862665 0.433889
v -2.262223 2.951054 -0.162460
v -1.999357 2.961935 -0.273267
v -2.259248 2.862665 -0.433889
v -2.525088 2.850648 -0.000000
v -2.701402 2.693777 -0.160622
v -2.499357 2.809014 -0.309017
v -1.473625 1.149346 -0.000000
v -1.736490 1.048940 0.162460
v -1.999357 1.038059 0.273267
v -1.736490 1.048940 -0.162460
v -1.739465 1.137329 -0.433889
v -1.999357 1.038059 -0.273267
v -1.499357 1.190980 0.309017
v -1.297311 1.306217 0.160622
v -1.999357 0.999997 -0.000000
v -2.262223 1.048940 0.162460
v -2.525088 1.149346 -0.000000
v -2.262223 1.048940 -0.162460
v -2.259248 1.137329 -0.433889
v -2.259248 1.137329 0.433889
v -2.701402 1.306217 0.160622
v -2.499357 1.190980 -0.309017
v -2.499357 1.190980 0.309017
v -1.048300 1.837537 -0.262866
v -1.048300 2.162457 -0.262866
v -1.037418 2.273264 -0.000000
v -1.190340 2.309014 -0.500000
v -1.148705 1.474266 -0.000000
v -1.148705 1.999997 -0.525731
v -1.473625 1.999997 -0.850651
v -0.999357 1.999997 -0.000000
v -1.048300 1.837537 0.262866
v -1.148705 1.999997 0.525731
v -1.037418 1.726730 -0.000000
v -1.136688 2.433886 0.259892
v -1.048300 2.162457 0.262866
v -1.190340 1.690980 0.500000
v -1.305577 1.839375 0.702046
v -1.190340 2.309014 0.500000
v -1.305577 2.160619 0.702046
v -2.950413 2.162457 0.262866
v -2.808373 1.690980 0.500000
v -2.850008 2.525728 -0.000000
v -2.862025 1.566108 0.259892
v -2.950413 1.837537 0.262866
v -2.525088 1.999997 0.850651
v -2.693136 1.839375 0.702046
v -2.808373 2.309014 0.500000
v -2.850008 1.999997 0.525731
v -2.850008 1.999997 -0.525731
v -2.999357 1.999997 -0.000000
v -2.950413 1.837537 -0.262866
v -2.950413 2.162457 -0.262866
v -2.961294 1.726730 -0.000000
v -2.862025 2.433886 -0.259892
v -2.961294 2.273264 -0.000000
v -2.693136 2.160619 -0.702046
v -2.808373 2.309014 -0.500000
v -1.999357 1.474266 0.850651
v -1.836897 1.737131 0.951057
v -2.161817 1.737131 0.951057
v -2.159979 1.297951 0.693780
v -1.999357 1.999997 1.000000
v -1.836897 2.262863 0.951057
v -2.308373 2.499997 0.809017
v -2.161817 2.262863 0.951057
v -2.272624 1.999997 0.961938
v -1.726089 1.999997 0.961938
v -2.159979 2.702043 0.693780
v -1.838735 2.702043 0.693780
v -1.999357 2.525728 0.850651
v -2.161817 2.262863 -0.951057
v -1.999357 2.525728 -0.850651
v -1.836897 2.262863 -0.951057
v -2.272624 1.999997 -0.961938
v -1.838735 2.702043 -0.693780
v -1.999357 1.474266 -0.850651
v -2.525088 1.999997 -0.850651
v -1.999357 1.999997 -1.000000
v -2.433245 1.740105 -0.862668
v -2.161817 1.737131 -0.951057
v -1.726089 1.999997 -0.961938
v -1.836897 1.737131 -0.951057
v -1.565467 1.740105 -0.862668
v -1.999357 1.149346 -0.525731
v -1.838735 1.297951 -0.693780
v -1.690340 1.499997 -0.809017
v -1.411572 2.425322 0.688191
v -1.311166 2.587782 0.425325
v -1.574031 2.688188 0.587785
v -1.739465 2.862665 0.433889
v -1.999357 2.850648 0.525731
v -1.499357 2.809014 0.309017
v -1.565467 2.259889 0.862668
v -1.690340 2.499997 0.809017
v -1.297311 2.693777 0.160622
v -2.499357 2.809014 0.309017
v -2.424681 2.688188 0.587785
v -2.862025 2.433886 0.259892
v -2.687547 2.587782 0.425325
v -2.701402 2.693777 0.160622
v -2.587142 2.425322 0.688191
v -2.433245 2.259889 0.862668
v -2.693136 2.160619 0.702046
v -1.411572 2.425322 -0.688191
v -1.739465 2.862665 -0.433889
v -1.574031 2.688188 -0.587785
v -1.297311 2.693777 -0.160622
v -1.148705 2.525728 -0.000000
v -1.136688 2.433886 -0.259892
v -1.311166 2.587782 -0.425325
v -1.565467 2.259889 -0.862668
v -1.305577 2.160619 -0.702046
v -1.690340 2.499997 -0.809017
v -2.308373 2.499997 -0.809017
v -2.587142 2.425322 -0.688191
v -2.424681 2.688188 -0.587785
v -2.159979 2.702043 -0.693780
v -2.433245 2.259889 -0.862668
v -2.687547 2.587782 -0.425325
v -1.411572 1.574672 0.688191
v -1.574031 1.311806 0.587785
v -1.311166 1.412212 0.425325
v -1.739465 1.137329 0.433889
v -1.999357 1.149346 0.525731
v -1.838735 1.297951 0.693780
v -1.690340 1.499997 0.809017
v -1.136688 1.566108 0.259892
v -1.565467 1.740106 0.862668
v -1.473625 1.999997 0.850651
v -2.687547 1.412212 0.425325
v -2.424681 1.311806 0.587785
v -2.308373 1.499997 0.809017
v -2.433245 1.740106 0.862668
v -2.587142 1.574672 0.688191
v -1.411572 1.574672 -0.688191
v -1.499357 1.190980 -0.309017
v -1.574031 1.311806 -0.587785
v -1.305577 1.839375 -0.702046
v -1.311166 1.412212 -0.425325
v -1.136688 1.566108 -0.259892
v -1.297311 1.306217 -0.160622
v -1.190340 1.690980 -0.500000
v -2.687547 1.412212 -0.425325
v -2.808373 1.690980 -0.500000
v -2.587142 1.574672 -0.688191
v -2.159979 1.297951 -0.693780
v -2.308373 1.499997 -0.809017
v -2.424681 1.311806 -0.587785
v -2.850008 1.474266 -0.000000
v -2.862025 1.566108 -0.259892
v -2.701402 1.306217 -0.160622
v -2.693136 1.839375 -0.702046
vn -0.8355 0.5409 -0.0967
vn 0.7509 0.4398 -0.4926
vn -0.9234 -0.1482 0.3541
vn 0.3843 -0.5422 -0.7472
vn 0.3036 -0.6843 -0.6630
vn -0.6066 -0.1059 0.7880
vn -0.1645 0.2185 0.9619
vn -0.4051 -0.2624 0.8758
vn -0.4566 -0.1326 0.8798
vn -0.8057 -0.1435 -0.5746
vn 0.3785 -0.7499 -0.5425
vn -0.1393 0.7481 -0.6488
vn 0.6024 -0.0430 -0.7970
vn 0.4390 -0.0222 -0.8982
vn -0.4083 -0.5458 0.7317
vn -0.1179 -0.3163 -0.9413
vn 0.0438 -0.3212 -0.9460
vn 0.6391 -0.4156 -0.6472
vn -0.9586 -0.1167 0.2598
vn -0.9765 0.0119 0.2153
vn 0.4614 0.3295 -0.8237
vn 0.5206 0.1977 -0.8306
vn 0.9877 -0.1531 0.0301
vn 0.9897 0.0311 0.1395
vn 0.4870 0.8598 -0.1537
vn -0.4208 0.6735 -0.6077
vn -0.4639 0.5848 -0.6654
vn 0.9366 -0.0940 0.3374
vn -0.9715 -0.0911 -0.2187
vn -0.9873 0.0629 -0.1456
vn -0.7642 -0.4687 -0.4431
vn 0.5906 -0.2155 -0.7776
vn 0.9741 -0.1336 -0.1822
vn 0.9642 0.0933 -0.2482
vn 0.8623 -0.2179 -0.4571
vn 0.7735 -0.3287 -0.5419
vn -0.4189 -0.5593 -0.7153
vn -0.5698 0.8201 -0.0536
vn -0.6319 0.7743 -0.0334
vn -0.0575 0.9200 -0.3877
vn -0.0185 0.8944 -0.4468
vn -0.8903 0.4121 -0.1939
vn -0.8489 0.3939 -0.3523
vn -0.1186 0.5757 -0.8090
vn 0.1548 -0.2018 -0.9671
vn 0.8328 0.4190 0.3618
vn 0.8931 0.3926 0.2198
vn -0.0615 0.6807 -0.7300
vn 0.1235 0.6800 -0.7227
vn -0.8045 0.5321 0.2641
vn 0.5717 0.4036 -0.7144
vn 0.6372 0.2239 -0.7375
vn 0.9514 0.2500 0.1799
vn 0.9754 -0.2143 0.0520
vn -0.3482 -0.6658 -0.6600
vn -0.4776 -0.7302 -0.4885
vn -0.4054 -0.3233 -0.8551
vn -0.6964 0.1283 0.7061
vn -0.9527 -0.0993 -0.2872
vn 0.5878 0.7390 -0.3292
vn 0.5570 0.6310 -0.5401
vn -0.7524 0.5077 -0.4197
vn -0.7093 0.6134 -0.3473
vn 0.4720 0.2912 0.8322
vn 0.8274 0.2950 0.4779
vn 0.9717 0.0540 0.2301
vn 0.9050 -0.3643 -0.2196
vn 0.8328 -0.3109 0.4580
vn 0.1212 0.9218 0.3682
vn 0.9729 0.2306 -0.0195
vn -0.1792 -0.9731 -0.1449
vn -0.3660 -0.9229 -0.1200
vn -0.6341 -0.1838 -0.7511
vn -0.5636 -0.3004 -0.7695
vn -0.9690 0.1516 -0.1952
vn -0.6027 0.1243 -0.7882
vn -0.9239 0.2859 0.2541
vn -0.1616 -0.0191 0.9867
vn -0.6730 0.3989 -0.6229
vn -0.2641 0.3510 -0.8984
vn -0.3787 0.4726 -0.7957
vn -0.3450 0.0093 0.9385
vn 0.8722 0.1848 0.4529
vn 0.9499 0.1476 0.2756
vn -0.5619 0.1237 0.8179
vn -0.3711 0.0946 0.9238
vn 0.8455 0.0913 0.5261
vn 0.0229 -0.4193 0.9076
vn -0.1560 -0.4225 0.8928
vn -0.4184 -0.8381 0.3500
vn -0.3506 -0.8187 0.4547
vn -0.0757 0.4736 0.8775
vn 0.6338 -0.0042 0.7735
vn 0.3684 0.9219 -0.1199
vn 0.2906 0.9553 0.0545
vn -0.4864 -0.3529 0.7993
vn -0.4059 -0.8545 -0.3240
vn 0.1305 -0.5828 0.8020
vn -0.2573 -0.5512 0.7937
vn -0.1208 -0.7682 0.6287
vn -0.0417 -0.7766 0.6286
vn 0.4365 0.7757 0.4558
vn 0.7085 0.5663 0.4212
vn 0.5898 -0.2562 0.7658
vn -0.6254 0.0674 0.7773
vn 0.7552 -0.4294 -0.4952
vn 0.8215 -0.4737 -0.3173
vn -0.9615 -0.2715 -0.0417
vn -0.7994 0.1403 -0.5842
vn -0.8558 0.0291 -0.5165
vn 0.5479 0.8365 0.0080
vn 0.5313 0.4115 -0.7406
vn 0.7169 0.1259 0.6858
vn 0.6587 0.2567 0.7073
vn 0.8477 -0.5057 0.1600
vn 0.8628 -0.5054 -0.0135
vn 0.6851 0.3526 0.6375
vn -0.2276 -0.2794 0.9328
vn -0.1110 -0.1468 0.9829
vn 0.9152 0.3384 -0.2190
vn 0.5995 0.1823 -0.7794
vn 0.1850 0.7740 0.6056
vn 0.2502 0.9013 0.3536
vn 0.2887 0.8377 0.4636
vn -0.6458 0.6790 0.3491
vn -0.4799 0.8225 -0.3051
vn -0.9070 -0.3317 -0.2595
vn 0.5381 0.7812 -0.3165
vn 0.4356 0.7445 -0.5059
vn 0.6617 0.7492 -0.0297
vn -0.5349 0.7372 -0.4129
vn 0.8269 -0.1904 0.5291
vn 0.8827 -0.0659 0.4652
vn 0.6828 -0.5947 -0.4245
vn 0.7220 -0.4576 -0.5190
vn 0.8921 0.2615 -0.3684
vn 0.7971 0.3114 -0.5173
vn 0.2692 0.6549 0.7061
vn 0.1122 -0.7180 -0.6870
vn -0.3357 -0.2110 -0.9180
vn -0.4192 -0.0852 -0.9039
vn 0.0680 -0.0878 -0.9938
vn 0.6784 0.6962 -0.2345
vn -0.8369 -0.0269 0.5468
vn -0.4440 -0.8947 0.0487
vn 0.1446 0.3511 0.9251
vn -0.0213 0.3607 0.9325
vn 0.6108 -0.0354 -0.7910
vn 0.1278 -0.4383 -0.8897
vn 0.6735 -0.7325 -0.0995
vn -0.9041 -0.3864 0.1827
vn 0.1688 0.9831 0.0714
vn -0.9389 0.1281 0.3196
vn 0.7732 -0.6191 -0.1373
vn 0.4772 0.6649 -0.5746
vn -0.1064 -0.9838 -0.1444
vn -0.1762 -0.2235 -0.9586
vn -0.0793 -0.0850 -0.9932
vn -0.9007 -0.2667 -0.3431
vn -0.8573 -0.2919 -0.4241
vn -0.3464 0.0650 -0.9358
vn -0.4446 -0.8625 -0.2417
vn -0.7387 0.6566 -0.1520
vn 0.0612 0.7783 0.6249
vn 0.0075 0.8524 0.5228
vn -0.3860 0.1340 -0.9127
vn -0.5736 0.1593 -0.8035
vn -0.6476 -0.6965 0.3090
vn -0.9216 0.1559 -0.3555
vn -0.8644 0.2779 -0.4190
vn -0.8516 -0.4946 0.1738
vn -0.7772 -0.5464 0.3120
vn -0.6883 0.0788 0.7211
vn -0.7853 -0.0489 0.6171
vn 0.3646 -0.2987 -0.8820
vn 0.2877 -0.1967 -0.9373
vn -0.4713 -0.6256 0.6216
vn -0.8596 -0.4299 -0.2762
vn -0.6671 0.4557 -0.5893
vn -0.9131 0.0414 -0.4056
vn -0.5917 0.3561 -0.7232
vn -0.6262 -0.6165 -0.4773
vn -0.2330 -0.6897 -0.6856
vn -0.5349 0.2486 0.8075
vn 0.0922 -0.8792 -0.4674
vn 0.0203 -0.8174 -0.5757
vn -0.3592 -0.9123 0.1965
vn 0.3252 -0.8449 -0.4246
vn -0.6422 -0.6149 -0.4577
vn -0.6315 -0.5200 -0.5752
vn -0.0260 -0.9996 -0.0120
vn -0.1013 -0.9744 0.2006
vn -0.0452 -0.9988 0.0174
vn 0.9258 0.1320 -0.3542
vn -0.7570 -0.4187 0.5016
vn -0.6054 -0.7633 -0.2257
vn -0.1509 0.0339 -0.9880
vn 0.2763 0.8050 -0.5250
vn -0.8079 0.2572 -0.5302
vn -0.5510 -0.0645 -0.8320
vn -0.1033 -0.8178 -0.5662
vn -0.2576 -0.9116 -0.3203
vn -0.1808 -0.9732 -0.1419
vn -0.6303 -0.5214 -0.5752
vn -0.5946 -0.7129 0.3719
vn -0.5731 -0.5985 0.5598
vn -0.9741 -0.2234 -0.0340
vn -0.9457 0.3002 -0.1242
vn 0.2101 0.8742 -0.4377
vn -0.3713 0.4936 -0.7864
vn 0.8508 0.0237 -0.5250
vn 0.6277 0.5024 -0.5946
vn 0.2460 0.4659 0.8499
vn -0.3402 0.9023 0.2648
vn -0.6004 0.7441 0.2929
vn -0.3886 0.8470 0.3626
vn -0.6364 0.4931 0.5932
vn -0.5898 0.6275 0.5083
vn -0.3544 0.7426 0.5683
vn 0.0860 -0.9193 0.3840
vn -0.6705 -0.1832 0.7189
vn -0.6092 -0.3302 0.7210
vn -0.8031 -0.5948 -0.0358
vn -0.6900 -0.7205 -0.0683
vn 0.0207 0.5902 0.8070
vn 0.1869 0.5897 0.7857
vn 0.2060 0.1995 0.9580
vn 0.0867 0.0609 0.9944
vn -0.2799 0.4218 0.8624
vn -0.2607 0.6476 0.7160
vn -0.3318 0.5350 0.7770
vn -0.0339 0.6908 0.7222
vn -0.5355 0.4366 0.7229
vn 0.0690 -0.1481 0.9866
vn 0.6440 0.5685 0.5119
vn 0.6293 0.4410 0.6399
vn -0.3134 0.8087 0.4978
vn 0.9213 -0.3827 -0.0688
vn -0.8936 -0.2534 0.3704
vn -0.8082 -0.2950 0.5096
vn -0.6067 -0.7911 0.0775
vn -0.8436 0.4090 0.3480
vn -0.7729 0.3743 0.5124
vn -0.7496 -0.1618 0.6418
vn -0.8528 0.0854 0.5152
vn -0.7824 0.1806 0.5959
vn -0.6648 -0.4540 0.5932
vn -0.0854 0.0668 0.9941
vn -0.5465 0.2555 0.7975
vn -0.3300 0.3441 0.8791
vn -0.2641 0.2169 0.9398
vn 0.3490 0.6389 0.6855
vn 0.4596 0.7039 0.5415
vn 0.7422 -0.5895 0.3186
vn -0.1323 -0.9789 0.1556
vn -0.0635 -0.9978 0.0185
vn -0.0494 -0.9790 0.1979
vn -0.0035 -0.9969 0.0784
vn 0.7612 -0.6091 -0.2229
vn -0.2696 -0.8456 0.4607
vn 0.3611 -0.9256 -0.1139
vn 0.5949 -0.7841 -0.1767
vn 0.0135 -0.5912 -0.8064
vn -0.1155 -0.5861 -0.8019
vn 0.6801 -0.7299 0.0684
vn 0.7707 -0.6045 0.2014
vn 0.4262 0.4748 0.7700
vn 0.6299 -0.2380 -0.7393
vn 0.2657 -0.5520 0.7904
vn 0.5918 -0.2235 0.7745
vn 0.3595 -0.1906 0.9135
vn 0.3594 -0.8663 0.3470
vn 0.4289 -0.7983 0.4228
vn 0.4308 -0.8927 0.1325
vn 0.1318 -0.0747 0.9885
vn 0.3340 -0.9426 0.0026
vn 0.1476 -0.2730 0.9506
vn 0.4344 0.0325 0.9001
vn 0.3828 0.1817 0.9058
vn 0.3803 -0.3579 0.8528
vn 0.3088 -0.2565 0.9159
vn 0.3345 -0.1072 0.9363
vn 0.8920 -0.3417 0.2960
vn 0.9412 -0.2219 0.2549
vn 0.4142 0.4596 0.7856
vn 0.6486 -0.1623 0.7436
vn 0.7221 0.2019 -0.6616
vn 0.8643 0.4726 -0.1723
vn 0.7887 0.5468 -0.2810
vn 0.6721 0.7007 0.2394
vn 0.8397 0.5416 0.0397
vn 0.7311 0.6768 0.0863
vn 0.3457 0.9195 0.1871
vn 0.4807 0.8624 0.1588
vn 0.4355 0.6141 -0.6582
vn 0.5276 0.8016 0.2813
vn 0.0515 0.9679 0.2462
vn 0.9865 0.1587 -0.0409
vn 0.6385 -0.0400 -0.7686
vn 0.7468 0.0706 -0.6613
vn 0.6394 -0.2323 -0.7330
vn 0.1362 0.2120 -0.9677
vn 0.2315 0.3494 -0.9079
vn 0.2008 0.0805 -0.9763
vn 0.4118 0.0488 -0.9100
vn 0.7327 -0.6361 -0.2419
vn 0.9310 -0.2493 -0.2665
vn -0.0436 0.2078 -0.9772
vn -0.1758 0.3620 -0.9154
vn -0.0694 0.5195 -0.8516
vn 0.1121 0.5251 -0.8436
vn 0.1710 0.6260 -0.7609
vn 0.4601 -0.8769 -0.1391
vn 0.6076 -0.7901 -0.0809
vn 0.4158 -0.9085 -0.0404
vn 0.7854 -0.3743 0.4930
vn -0.2164 -0.4428 -0.8701
vn 0.2978 -0.4059 -0.8640
vn -0.3330 -0.4402 -0.8339
s 0
f 60//1 65//1 62//1
f 115//2 6//2 116//2
f 53//3 30//3 140//3
f 145//4 148//4 152//4
f 145//5 152//5 149//5
f 144//6 142//6 143//6
f 112//7 76//7 75//7
f 142//8 68//8 70//8
f 142//9 70//9 143//9
f 155//10 158//10 153//10
f 152//11 150//11 149//11
f 126//12 125//12 129//12
f 122//13 39//13 121//13
f 121//14 39//14 91//14
f 135//15 68//15 71//15
f 92//16 96//16 86//16
f 92//17 93//17 96//17
f 38//18 152//18 148//18
f 53//19 159//19 30//19
f 53//20 63//20 159//20
f 83//21 82//21 123//21
f 121//22 83//22 123//22
f 44//23 35//23 118//23
f 105//24 44//24 118//24
f 12//25 10//25 11//25
f 125//26 67//26 129//26
f 125//27 66//27 67//27
f 98//28 48//28 44//28
f 161//29 159//29 160//29
f 160//30 159//30 63//30
f 31//31 158//31 28//31
f 122//32 148//32 39//32
f 35//33 119//33 118//33
f 117//34 118//34 119//34
f 34//35 36//35 119//35
f 34//36 38//36 36//36
f 94//37 156//37 95//37
f 14//38 64//38 52//38
f 65//39 52//39 64//39
f 129//40 14//40 15//40
f 126//41 129//41 15//41
f 61//42 60//42 62//42
f 61//43 62//43 59//43
f 124//44 128//44 125//44
f 92//45 91//45 93//45
f 2//46 100//46 102//46
f 2//47 102//47 4//47
f 125//48 126//48 124//48
f 124//49 126//49 127//49
f 50//50 65//50 60//50
f 85//51 116//51 123//51
f 114//52 123//52 116//52
f 4//53 102//53 105//53
f 45//54 35//54 44//54
f 94//55 95//55 20//55
f 21//56 94//56 20//56
f 86//57 156//57 157//57
f 58//58 51//58 56//58
f 160//59 153//59 161//59
f 115//60 5//60 11//60
f 115//61 85//61 5//61
f 59//62 62//62 67//62
f 67//63 62//63 64//63
f 80//64 104//64 79//64
f 99//65 102//65 100//65
f 105//66 98//66 44//66
f 34//67 35//67 40//67
f 42//68 48//68 49//68
f 13//69 110//69 106//69
f 117//70 105//70 118//70
f 19//71 16//71 17//71
f 19//72 17//72 24//72
f 157//73 158//73 155//73
f 157//74 156//74 158//74
f 61//75 160//75 63//75
f 155//76 162//76 89//76
f 60//77 63//77 54//77
f 70//78 72//78 76//78
f 162//79 59//79 66//79
f 87//80 128//80 84//80
f 87//81 66//81 128//81
f 70//82 76//82 143//82
f 99//83 98//83 102//83
f 105//84 102//84 98//84
f 56//85 143//85 55//85
f 55//86 143//86 76//86
f 98//87 99//87 97//87
f 69//88 136//88 138//88
f 69//89 68//89 136//89
f 134//90 18//90 133//90
f 134//91 133//91 135//91
f 111//92 112//92 74//92
f 97//93 104//93 103//93
f 10//94 12//94 15//94
f 10//95 15//95 13//95
f 68//96 142//96 71//96
f 21//97 20//97 19//97
f 138//98 136//98 130//98
f 68//99 135//99 136//99
f 136//100 135//100 131//100
f 136//101 131//101 130//101
f 7//102 8//102 9//102
f 2//103 7//103 100//103
f 47//104 49//104 139//104
f 56//105 144//105 143//105
f 33//106 38//106 34//106
f 33//107 34//107 40//107
f 30//108 159//108 161//108
f 154//109 162//109 155//109
f 154//110 155//110 153//110
f 10//111 1//111 11//111
f 82//112 85//112 123//112
f 99//113 104//113 97//113
f 99//114 79//114 104//114
f 45//115 42//115 41//115
f 45//116 41//116 40//116
f 99//117 100//117 79//117
f 70//118 68//118 69//118
f 70//119 69//119 72//119
f 4//120 117//120 6//120
f 114//121 121//121 123//121
f 107//122 9//122 106//122
f 8//123 13//123 106//123
f 9//124 8//124 106//124
f 65//125 50//125 108//125
f 14//126 129//126 64//126
f 26//127 161//127 31//127
f 12//128 11//128 5//128
f 127//129 12//129 5//129
f 3//130 11//130 1//130
f 129//131 67//131 64//131
f 97//132 49//132 48//132
f 98//133 97//133 48//133
f 33//134 150//134 152//134
f 33//135 152//135 38//135
f 120//136 6//136 117//136
f 120//137 116//137 6//137
f 9//138 107//138 78//138
f 145//139 149//139 147//139
f 157//140 90//140 86//140
f 157//141 89//141 90//141
f 88//142 91//142 92//142
f 3//143 115//143 11//143
f 53//144 140//144 51//144
f 18//145 24//145 17//145
f 80//146 74//146 75//146
f 112//147 75//147 74//147
f 121//148 114//148 122//148
f 96//149 93//149 145//149
f 41//150 137//150 43//150
f 26//151 32//151 30//151
f 13//152 15//152 14//152
f 53//153 54//153 63//153
f 41//154 43//154 40//154
f 127//155 5//155 85//155
f 16//156 146//156 151//156
f 92//157 86//157 90//157
f 88//158 92//158 90//158
f 161//159 153//159 31//159
f 31//160 153//160 158//160
f 84//161 90//161 89//161
f 21//162 19//162 24//162
f 65//163 64//163 62//163
f 109//164 107//164 106//164
f 109//165 106//165 110//165
f 87//166 84//166 89//166
f 162//167 87//167 89//167
f 18//168 29//168 25//168
f 160//169 61//169 154//169
f 154//170 61//170 59//170
f 26//171 25//171 32//171
f 29//172 32//172 25//172
f 56//173 51//173 144//173
f 144//174 51//174 140//174
f 39//175 148//175 93//175
f 39//176 93//176 91//176
f 134//177 135//177 71//177
f 31//31 28//31 27//31
f 26//178 31//178 27//178
f 59//179 67//179 66//179
f 154//180 153//180 160//180
f 87//181 162//181 66//181
f 21//182 27//182 28//182
f 95//183 147//183 20//183
f 113//184 58//184 56//184
f 149//185 151//185 146//185
f 149//186 146//186 147//186
f 18//187 17//187 133//187
f 150//188 151//188 149//188
f 21//189 28//189 94//189
f 94//190 28//190 156//190
f 23//191 16//191 151//191
f 131//192 133//192 22//192
f 16//193 23//193 22//193
f 120//194 117//194 119//194
f 29//195 141//195 32//195
f 21//196 24//196 27//196
f 84//197 88//197 90//197
f 126//198 12//198 127//198
f 59//199 162//199 154//199
f 157//200 155//200 89//200
f 147//201 146//201 20//201
f 19//202 20//202 146//202
f 16//203 19//203 146//203
f 28//204 158//204 156//204
f 18//205 134//205 29//205
f 29//206 134//206 71//206
f 30//207 161//207 26//207
f 60//208 61//208 63//208
f 126//209 15//209 12//209
f 128//210 66//210 125//210
f 120//211 119//211 36//211
f 115//212 116//212 85//212
f 80//213 78//213 74//213
f 14//214 52//214 110//214
f 108//215 52//215 65//215
f 108//216 110//216 52//216
f 50//217 58//217 57//217
f 50//218 57//218 108//218
f 109//219 108//219 57//219
f 131//220 132//220 130//220
f 141//221 142//221 144//221
f 141//222 71//222 142//222
f 26//223 27//223 25//223
f 24//224 25//224 27//224
f 107//225 111//225 74//225
f 107//226 74//226 78//226
f 73//227 80//227 75//227
f 72//228 73//228 75//228
f 112//229 111//229 113//229
f 111//230 109//230 57//230
f 111//231 57//231 113//231
f 111//232 107//232 109//232
f 58//233 113//233 57//233
f 69//234 77//234 72//234
f 100//235 7//235 101//235
f 100//236 101//236 79//236
f 109//237 110//237 108//237
f 45//238 40//238 35//238
f 140//239 30//239 32//239
f 141//240 140//240 32//240
f 18//241 25//241 24//241
f 50//242 60//242 54//242
f 58//243 50//243 54//243
f 141//244 144//244 140//244
f 53//245 51//245 54//245
f 58//246 54//246 51//246
f 141//247 29//247 71//247
f 72//248 75//248 76//248
f 55//249 113//249 56//249
f 112//250 113//250 55//250
f 112//251 55//251 76//251
f 9//252 78//252 101//252
f 7//253 9//253 101//253
f 42//254 47//254 46//254
f 133//255 17//255 22//255
f 16//256 22//256 17//256
f 131//257 22//257 132//257
f 23//258 132//258 22//258
f 33//259 40//259 43//259
f 135//260 133//260 131//260
f 137//261 23//261 37//261
f 137//262 37//262 43//262
f 96//263 145//263 147//263
f 96//264 147//264 95//264
f 41//265 46//265 137//265
f 41//266 42//266 46//266
f 78//267 79//267 101//267
f 122//268 38//268 148//268
f 138//269 130//269 47//269
f 139//270 49//270 103//270
f 139//271 103//271 77//271
f 132//272 46//272 130//272
f 130//273 46//273 47//273
f 137//274 46//274 132//274
f 73//275 72//275 77//275
f 137//276 132//276 23//276
f 69//277 138//277 77//277
f 73//278 103//278 104//278
f 73//279 104//279 80//279
f 138//280 47//280 139//280
f 138//281 139//281 77//281
f 103//282 73//282 77//282
f 45//283 48//283 42//283
f 45//284 44//284 48//284
f 80//285 79//285 78//285
f 103//286 49//286 97//286
f 114//287 116//287 120//287
f 3//288 4//288 6//288
f 115//289 3//289 6//289
f 7//290 2//290 1//290
f 2//291 4//291 3//291
f 2//292 3//292 1//292
f 10//293 13//293 8//293
f 10//294 8//294 1//294
f 127//295 85//295 82//295
f 8//296 7//296 1//296
f 14//297 110//297 13//297
f 117//298 4//298 105//298
f 122//299 114//299 36//299
f 120//300 36//300 114//300
f 38//301 122//301 36//301
f 83//302 88//302 81//302
f 83//303 81//303 82//303
f 83//304 91//304 88//304
f 121//305 91//305 83//305
f 150//306 33//306 43//306
f 35//307 34//307 119//307
f 81//308 88//308 84//308
f 128//309 81//309 84//309
f 124//310 81//310 128//310
f 124//311 82//311 81//311
f 82//312 124//312 127//312
f 37//313 151//313 150//313
f 37//314 150//314 43//314
f 37//315 23//315 151//315
f 49//316 47//316 42//316
f 86//317 96//317 95//317
f 145//318 93//318 148//318
f 86//319 95//319 156//319
